ffmpeg started on 2016-12-12 at 08:30:21
Report written to "Output/theora/results/ffmpeg/old_town_cross_2160p5010000k.log"
Command line:
Tools/ffmpeg/ffmpeg -benchmark -y -i Input/y4m/old_town_cross_2160p50.y4m -c:v libtheora -b:v 10000k -an Output/theora/encoded/old_town_cross_2160p5010000k.mkv
ffmpeg version N-82227-gdb23fde Copyright (c) 2000-2016 the FFmpeg developers
  built with gcc 5.4.0 (Ubuntu 5.4.0-6ubuntu1~16.04.2) 20160609
  configuration: --prefix=/home/jaroslav/ffmpeg_build --pkg-config-flags=--static --extra-cflags=-I/home/jaroslav/ffmpeg_build/include --extra-ldflags=-L/home/jaroslav/ffmpeg_build/lib --bindir=/home/jaroslav/bin --enable-gpl --enable-libass --enable-libfdk-aac --enable-libfreetype --enable-libmp3lame --enable-libopus --enable-libtheora --enable-libvorbis --enable-libvpx --enable-libx264 --enable-libx265 --enable-nvenc --enable-libmfx --enable-libxvid --enable-libgsm --enable-libopencore-amrnb --enable-version3 --enable-nonfree
  libavutil      55. 35.100 / 55. 35.100
  libavcodec     57. 66.101 / 57. 66.101
  libavformat    57. 57.100 / 57. 57.100
  libavdevice    57.  2.100 / 57.  2.100
  libavfilter     6. 66.100 /  6. 66.100
  libswscale      4.  3.100 /  4.  3.100
  libswresample   2.  4.100 /  2.  4.100
  libpostproc    54.  2.100 / 54.  2.100
Input #0, yuv4mpegpipe, from 'Input/y4m/old_town_cross_2160p50.y4m':
  Duration: 00:00:10.00, start: 0.000000, bitrate: 4976642 kb/s
    Stream #0:0: Video: rawvideo (I420 / 0x30323449), yuv420p(progressive), 3840x2160, SAR 1:1 DAR 16:9, 50 fps, 50 tbr, 50 tbn, 50 tbc
Output #0, matroska, to 'Output/theora/encoded/old_town_cross_2160p5010000k.mkv':
  Metadata:
    encoder         : Lavf57.57.100
    Stream #0:0: Video: theora (libtheora) (theo / 0x6F656874), yuv420p, 3840x2160 [SAR 1:1 DAR 16:9], q=2-31, 10000 kb/s, 50 fps, 1k tbn, 50 tbc
    Metadata:
      encoder         : Lavc57.66.101 libtheora
Stream mapping:
  Stream #0:0 -> #0:0 (rawvideo (native) -> theora (libtheora))
Press [q] to stop, [?] for help
frame=    3 fps=0.0 q=-0.0 size=       4kB time=00:00:00.04 bitrate= 779.5kbits/s speed=0.0567x    frame=    5 fps=3.6 q=-0.0 size=       4kB time=00:00:00.08 bitrate= 394.6kbits/s speed=0.0591x    frame=    7 fps=3.5 q=-0.0 size=       4kB time=00:00:00.12 bitrate= 264.1kbits/s speed=0.0601x    frame=    9 fps=3.4 q=-0.0 size=       4kB time=00:00:00.16 bitrate= 198.5kbits/s speed=0.0606x    frame=   11 fps=3.3 q=-0.0 size=       4kB time=00:00:00.20 bitrate= 159.0kbits/s speed=0.0609x    frame=   13 fps=3.3 q=-0.0 size=     244kB time=00:00:00.24 bitrate=8284.9kbits/s speed=0.0611x    frame=   16 fps=3.4 q=-0.0 size=     244kB time=00:00:00.30 bitrate=6633.4kbits/s speed=0.0633x    frame=   18 fps=3.3 q=-0.0 size=     244kB time=00:00:00.34 bitrate=5855.3kbits/s speed=0.063x    frame=   20 fps=3.3 q=-0.0 size=     244kB time=00:00:00.38 bitrate=5240.6kbits/s speed=0.0628x    frame=   22 fps=3.3 q=-0.0 size=     244kB time=00:00:00.42 bitrate=4742.7kbits/s speed=0.0627x    frame=   24 fps=3.3 q=-0.0 size=     244kB time=00:00:00.46 bitrate=4331.1kbits/s speed=0.0625x    frame=   26 fps=3.3 q=-0.0 size=     549kB time=00:00:00.50 bitrate=8973.9kbits/s speed=0.0635x    frame=   28 fps=3.3 q=-0.0 size=     549kB time=00:00:00.54 bitrate=8310.4kbits/s speed=0.0634x    frame=   30 fps=3.3 q=-0.0 size=     549kB time=00:00:00.58 bitrate=7738.3kbits/s speed=0.0633x    frame=   32 fps=3.3 q=-0.0 size=     549kB time=00:00:00.62 bitrate=7239.8kbits/s speed=0.0631x    frame=   34 fps=3.1 q=-0.0 size=     549kB time=00:00:00.66 bitrate=6801.7kbits/s speed=0.0607x    frame=   36 fps=3.1 q=-0.0 size=     549kB time=00:00:00.70 bitrate=6413.6kbits/s speed=0.0607x    frame=   38 fps=3.2 q=-0.0 size=     857kB time=00:00:00.74 bitrate=9472.4kbits/s speed=0.0614x    frame=   40 fps=3.1 q=-0.0 size=     857kB time=00:00:00.78 bitrate=8987.3kbits/s speed=0.0615x    frame=   42 fps=3.1 q=-0.0 size=     857kB time=00:00:00.82 bitrate=8549.4kbits/s speed=0.0615x    frame=   44 fps=3.1 q=-0.0 size=     857kB time=00:00:00.86 bitrate=8152.2kbits/s speed=0.0615x    frame=   46 fps=3.1 q=-0.0 size=     857kB time=00:00:00.90 bitrate=7790.3kbits/s speed=0.0614x    frame=   48 fps=3.1 q=-0.0 size=     857kB time=00:00:00.94 bitrate=7459.1kbits/s speed=0.0615x    frame=   50 fps=3.2 q=-0.0 size=    1138kB time=00:00:00.98 bitrate=9504.3kbits/s speed=0.062x    frame=   52 fps=3.2 q=-0.0 size=    1138kB time=00:00:01.02 bitrate=9132.0kbits/s speed=0.062x    frame=   54 fps=3.2 q=-0.0 size=    1138kB time=00:00:01.06 bitrate=8787.7kbits/s speed=0.062x    frame=   56 fps=3.2 q=-0.0 size=    1138kB time=00:00:01.10 bitrate=8468.4kbits/s speed=0.062x    frame=   58 fps=3.1 q=-0.0 size=    1138kB time=00:00:01.14 bitrate=8171.5kbits/s speed=0.062x    frame=   60 fps=3.1 q=-0.0 size=    1138kB time=00:00:01.18 bitrate=7894.8kbits/s speed=0.0619x    frame=   62 fps=3.2 q=-0.0 size=    1444kB time=00:00:01.22 bitrate=9689.6kbits/s speed=0.0622x    frame=   64 fps=3.2 q=-0.0 size=    1444kB time=00:00:01.26 bitrate=9382.3kbits/s speed=0.0623x    frame=   66 fps=3.2 q=-0.0 size=    1444kB time=00:00:01.30 bitrate=9093.8kbits/s speed=0.0622x    frame=   68 fps=3.2 q=-0.0 size=    1444kB time=00:00:01.34 bitrate=8822.6kbits/s speed=0.0622x    frame=   70 fps=3.2 q=-0.0 size=    1444kB time=00:00:01.38 bitrate=8567.0kbits/s speed=0.0622x    frame=   72 fps=3.1 q=-0.0 size=    1444kB time=00:00:01.42 bitrate=8325.9kbits/s speed=0.0621x    frame=   74 fps=3.2 q=-0.0 size=    1757kB time=00:00:01.46 bitrate=9849.9kbits/s speed=0.0625x    frame=   76 fps=3.2 q=-0.0 size=    1757kB time=00:00:01.50 bitrate=9587.4kbits/s speed=0.0625x    frame=   78 fps=3.2 q=-0.0 size=    1757kB time=00:00:01.54 bitrate=9338.6kbits/s speed=0.0625x    frame=   80 fps=3.2 q=-0.0 size=    1757kB time=00:00:01.58 bitrate=9102.3kbits/s speed=0.0625x    frame=   82 fps=3.2 q=-0.0 size=    1757kB time=00:00:01.62 bitrate=8877.7kbits/s speed=0.0624x    frame=   84 fps=3.2 q=-0.0 size=    1757kB time=00:00:01.66 bitrate=8663.9kbits/s speed=0.0624x    frame=   86 fps=3.2 q=-0.0 size=    2038kB time=00:00:01.70 bitrate=9812.6kbits/s speed=0.0627x    frame=   88 fps=3.2 q=-0.0 size=    2038kB time=00:00:01.74 bitrate=9587.2kbits/s speed=0.0627x    frame=   89 fps=3.1 q=-0.0 size=    2038kB time=00:00:01.76 bitrate=9478.3kbits/s speed=0.0618x    frame=   91 fps=3.1 q=-0.0 size=    2038kB time=00:00:01.80 bitrate=9267.8kbits/s speed=0.0618x    frame=   93 fps=3.1 q=-0.0 size=    2038kB time=00:00:01.84 bitrate=9066.4kbits/s speed=0.0618x    frame=   95 fps=3.1 q=-0.0 size=    2038kB time=00:00:01.88 bitrate=8873.6kbits/s speed=0.0617x    frame=   97 fps=3.1 q=-0.0 size=    2348kB time=00:00:01.92 bitrate=10011.0kbits/s speed=0.0617x    frame=  100 fps=3.1 q=-0.0 size=    2348kB time=00:00:01.98 bitrate=9707.8kbits/s speed=0.062x    frame=  102 fps=3.1 q=-0.0 size=    2348kB time=00:00:02.02 bitrate=9515.7kbits/s speed=0.062x    frame=  104 fps=3.1 q=-0.0 size=    2348kB time=00:00:02.06 bitrate=9331.0kbits/s speed=0.062x    frame=  106 fps=3.1 q=-0.0 size=    2348kB time=00:00:02.10 bitrate=9153.3kbits/s speed=0.0619x    frame=  108 fps=3.1 q=-0.0 size=    2348kB time=00:00:02.14 bitrate=8982.3kbits/s speed=0.0619x    frame=  110 fps=3.1 q=-0.0 size=    2645kB time=00:00:02.18 bitrate=9936.5kbits/s speed=0.0622x    frame=  112 fps=3.1 q=-0.0 size=    2645kB time=00:00:02.22 bitrate=9757.6kbits/s speed=0.0622x    frame=  114 fps=3.1 q=-0.0 size=    2645kB time=00:00:02.26 bitrate=9585.0kbits/s speed=0.0622x    frame=  116 fps=3.1 q=-0.0 size=    2645kB time=00:00:02.30 bitrate=9418.3kbits/s speed=0.0622x    frame=  118 fps=3.1 q=-0.0 size=    2645kB time=00:00:02.34 bitrate=9257.4kbits/s speed=0.0622x    frame=  120 fps=3.1 q=-0.0 size=    2645kB time=00:00:02.38 bitrate=9101.9kbits/s speed=0.0622x    frame=  122 fps=3.1 q=-0.0 size=    2937kB time=00:00:02.42 bitrate=9939.0kbits/s speed=0.0624x    frame=  124 fps=3.1 q=-0.0 size=    2937kB time=00:00:02.46 bitrate=9777.5kbits/s speed=0.0624x    frame=  126 fps=3.1 q=-0.0 size=    2937kB time=00:00:02.50 bitrate=9621.1kbits/s speed=0.0624x    frame=  128 fps=3.1 q=-0.0 size=    2937kB time=00:00:02.54 bitrate=9469.6kbits/s speed=0.0624x    frame=  130 fps=3.1 q=-0.0 size=    2937kB time=00:00:02.58 bitrate=9322.9kbits/s speed=0.0624x    frame=  132 fps=3.1 q=-0.0 size=    2937kB time=00:00:02.62 bitrate=9180.6kbits/s speed=0.0623x    frame=  134 fps=3.1 q=-0.0 size=    3239kB time=00:00:02.66 bitrate=9970.2kbits/s speed=0.0625x    frame=  136 fps=3.1 q=-0.0 size=    3239kB time=00:00:02.70 bitrate=9822.6kbits/s speed=0.0625x    frame=  138 fps=3.1 q=-0.0 size=    3239kB time=00:00:02.74 bitrate=9679.2kbits/s speed=0.0625x    frame=  140 fps=3.1 q=-0.0 size=    3239kB time=00:00:02.78 bitrate=9540.0kbits/s speed=0.0625x    frame=  142 fps=3.1 q=-0.0 size=    3239kB time=00:00:02.82 bitrate=9404.7kbits/s speed=0.0625x    frame=  144 fps=3.1 q=-0.0 size=    3239kB time=00:00:02.86 bitrate=9273.2kbits/s speed=0.0625x    frame=  146 fps=3.2 q=-0.0 size=    3546kB time=00:00:02.90 bitrate=10012.2kbits/s speed=0.0626x    frame=  148 fps=3.2 q=-0.0 size=    3546kB time=00:00:02.94 bitrate=9876.0kbits/s speed=0.0626x    frame=  150 fps=3.2 q=-0.0 size=    3546kB time=00:00:02.98 bitrate=9743.5kbits/s speed=0.0626x    frame=  152 fps=3.2 q=-0.0 size=    3546kB time=00:00:03.02 bitrate=9614.5kbits/s speed=0.0626x    frame=  154 fps=3.1 q=-0.0 size=    3546kB time=00:00:03.06 bitrate=9488.8kbits/s speed=0.0626x    frame=  156 fps=3.1 q=-0.0 size=    3546kB time=00:00:03.10 bitrate=9366.4kbits/s speed=0.0626x    frame=  158 fps=3.2 q=-0.0 size=    3826kB time=00:00:03.14 bitrate=9977.4kbits/s speed=0.0628x    frame=  160 fps=3.2 q=-0.0 size=    3826kB time=00:00:03.18 bitrate=9851.9kbits/s speed=0.0628x    frame=  162 fps=3.2 q=-0.0 size=    3826kB time=00:00:03.22 bitrate=9729.6kbits/s speed=0.0628x    frame=  164 fps=3.2 q=-0.0 size=    3826kB time=00:00:03.26 bitrate=9610.2kbits/s speed=0.0628x    frame=  166 fps=3.2 q=-0.0 size=    3826kB time=00:00:03.30 bitrate=9493.8kbits/s speed=0.0627x    frame=  168 fps=3.2 q=-0.0 size=    3826kB time=00:00:03.34 bitrate=9380.1kbits/s speed=0.0627x    frame=  170 fps=3.2 q=-0.0 size=    4107kB time=00:00:03.38 bitrate=9952.0kbits/s speed=0.0629x    frame=  172 fps=3.1 q=-0.0 size=    4107kB time=00:00:03.42 bitrate=9835.6kbits/s speed=0.0624x    frame=  174 fps=3.1 q=-0.0 size=    4107kB time=00:00:03.46 bitrate=9721.9kbits/s speed=0.0624x    frame=  176 fps=3.1 q=-0.0 size=    4107kB time=00:00:03.50 bitrate=9610.9kbits/s speed=0.0624x    frame=  178 fps=3.1 q=-0.0 size=    4107kB time=00:00:03.54 bitrate=9502.3kbits/s speed=0.0623x    frame=  180 fps=3.1 q=-0.0 size=    4107kB time=00:00:03.58 bitrate=9396.1kbits/s speed=0.0623x    frame=  182 fps=3.1 q=-0.0 size=    4407kB time=00:00:03.62 bitrate=9971.0kbits/s speed=0.0624x    frame=  184 fps=3.1 q=-0.0 size=    4407kB time=00:00:03.66 bitrate=9862.1kbits/s speed=0.0625x    frame=  186 fps=3.1 q=-0.0 size=    4407kB time=00:00:03.70 bitrate=9755.5kbits/s speed=0.0625x    frame=  188 fps=3.1 q=-0.0 size=    4407kB time=00:00:03.74 bitrate=9651.2kbits/s speed=0.0624x    frame=  190 fps=3.1 q=-0.0 size=    4407kB time=00:00:03.78 bitrate=9549.1kbits/s speed=0.0624x    frame=  192 fps=3.1 q=-0.0 size=    4407kB time=00:00:03.82 bitrate=9449.1kbits/s speed=0.0624x    frame=  194 fps=3.1 q=-0.0 size=    4700kB time=00:00:03.86 bitrate=9973.0kbits/s speed=0.0626x    frame=  196 fps=3.1 q=-0.0 size=    4700kB time=00:00:03.90 bitrate=9870.7kbits/s speed=0.0626x    frame=  198 fps=3.1 q=-0.0 size=    4700kB time=00:00:03.94 bitrate=9770.6kbits/s speed=0.0626x    frame=  200 fps=3.1 q=-0.0 size=    4700kB time=00:00:03.98 bitrate=9672.4kbits/s speed=0.0625x    frame=  202 fps=3.1 q=-0.0 size=    4700kB time=00:00:04.02 bitrate=9576.2kbits/s speed=0.0625x    frame=  204 fps=3.1 q=-0.0 size=    4700kB time=00:00:04.06 bitrate=9481.8kbits/s speed=0.0625x    frame=  206 fps=3.1 q=-0.0 size=    5003kB time=00:00:04.10 bitrate=9994.5kbits/s speed=0.0626x    frame=  208 fps=3.1 q=-0.0 size=    5003kB time=00:00:04.14 bitrate=9898.0kbits/s speed=0.0627x    frame=  210 fps=3.1 q=-0.0 size=    5003kB time=00:00:04.18 bitrate=9803.3kbits/s speed=0.0626x    frame=  212 fps=3.1 q=-0.0 size=    5003kB time=00:00:04.22 bitrate=9710.4kbits/s speed=0.0626x    frame=  214 fps=3.1 q=-0.0 size=    5003kB time=00:00:04.26 bitrate=9619.2kbits/s speed=0.0626x    frame=  216 fps=3.1 q=-0.0 size=    5003kB time=00:00:04.30 bitrate=9529.8kbits/s speed=0.0626x    frame=  218 fps=3.2 q=-0.0 size=    5300kB time=00:00:04.34 bitrate=10001.4kbits/s speed=0.0627x    frame=  220 fps=3.2 q=-0.0 size=    5300kB time=00:00:04.38 bitrate=9910.1kbits/s speed=0.0627x    frame=  222 fps=3.1 q=-0.0 size=    5300kB time=00:00:04.42 bitrate=9820.4kbits/s speed=0.0627x    frame=  224 fps=3.1 q=-0.0 size=    5300kB time=00:00:04.46 bitrate=9732.4kbits/s speed=0.0627x    frame=  226 fps=3.1 q=-0.0 size=    5300kB time=00:00:04.50 bitrate=9645.9kbits/s speed=0.0627x    frame=  228 fps=3.1 q=-0.0 size=    5300kB time=00:00:04.54 bitrate=9560.9kbits/s speed=0.0627x    frame=  230 fps=3.2 q=-0.0 size=    5595kB time=00:00:04.58 bitrate=10005.0kbits/s speed=0.0628x    frame=  232 fps=3.2 q=-0.0 size=    5595kB time=00:00:04.62 bitrate=9918.4kbits/s speed=0.0628x    frame=  234 fps=3.2 q=-0.0 size=    5595kB time=00:00:04.66 bitrate=9833.2kbits/s speed=0.0628x    frame=  236 fps=3.2 q=-0.0 size=    5595kB time=00:00:04.70 bitrate=9749.6kbits/s speed=0.0628x    frame=  238 fps=3.1 q=-0.0 size=    5595kB time=00:00:04.74 bitrate=9667.3kbits/s speed=0.0627x    frame=  240 fps=3.1 q=-0.0 size=    5595kB time=00:00:04.78 bitrate=9586.4kbits/s speed=0.0627x    frame=  242 fps=3.2 q=-0.0 size=    5891kB time=00:00:04.82 bitrate=10010.6kbits/s speed=0.0628x    frame=  244 fps=3.2 q=-0.0 size=    5891kB time=00:00:04.86 bitrate=9928.2kbits/s speed=0.0628x    frame=  246 fps=3.2 q=-0.0 size=    5891kB time=00:00:04.90 bitrate=9847.2kbits/s speed=0.0628x    frame=  248 fps=3.2 q=-0.0 size=    5891kB time=00:00:04.94 bitrate=9767.5kbits/s speed=0.0628x    frame=  250 fps=3.2 q=-0.0 size=    5891kB time=00:00:04.98 bitrate=9689.0kbits/s speed=0.0628x    frame=  252 fps=3.2 q=-0.0 size=    5891kB time=00:00:05.02 bitrate=9611.8kbits/s speed=0.0628x    frame=  254 fps=3.2 q=-0.0 size=    6184kB time=00:00:05.06 bitrate=10010.0kbits/s speed=0.0629x    frame=  256 fps=3.2 q=-0.0 size=    6184kB time=00:00:05.10 bitrate=9931.5kbits/s speed=0.0629x    frame=  258 fps=3.2 q=-0.0 size=    6184kB time=00:00:05.14 bitrate=9854.2kbits/s speed=0.0629x    frame=  260 fps=3.2 q=-0.0 size=    6184kB time=00:00:05.18 bitrate=9778.1kbits/s speed=0.0629x    frame=  262 fps=3.2 q=-0.0 size=    6184kB time=00:00:05.22 bitrate=9703.2kbits/s speed=0.0628x    frame=  264 fps=3.2 q=-0.0 size=    6184kB time=00:00:05.26 bitrate=9629.4kbits/s speed=0.0628x    frame=  266 fps=3.2 q=-0.0 size=    6468kB time=00:00:05.30 bitrate=9995.1kbits/s speed=0.0629x    frame=  268 fps=3.2 q=-0.0 size=    6468kB time=00:00:05.34 bitrate=9920.3kbits/s speed=0.0629x    frame=  270 fps=3.2 q=-0.0 size=    6468kB time=00:00:05.38 bitrate=9846.5kbits/s speed=0.0629x    frame=  272 fps=3.2 q=-0.0 size=    6468kB time=00:00:05.42 bitrate=9773.9kbits/s speed=0.0629x    frame=  274 fps=3.2 q=-0.0 size=    6468kB time=00:00:05.46 bitrate=9702.3kbits/s speed=0.0629x    frame=  276 fps=3.2 q=-0.0 size=    6468kB time=00:00:05.50 bitrate=9631.7kbits/s speed=0.0629x    frame=  278 fps=3.2 q=-0.0 size=    6785kB time=00:00:05.54 bitrate=10031.3kbits/s speed=0.063x    frame=  280 fps=3.2 q=-0.0 size=    6785kB time=00:00:05.58 bitrate=9959.4kbits/s speed=0.063x    frame=  282 fps=3.2 q=-0.0 size=    6785kB time=00:00:05.62 bitrate=9888.5kbits/s speed=0.0629x    frame=  284 fps=3.2 q=-0.0 size=    6785kB time=00:00:05.66 bitrate=9818.7kbits/s speed=0.0629x    frame=  286 fps=3.2 q=-0.0 size=    6785kB time=00:00:05.70 bitrate=9749.8kbits/s speed=0.0629x    frame=  288 fps=3.2 q=-0.0 size=    6785kB time=00:00:05.74 bitrate=9681.8kbits/s speed=0.0629x    frame=  290 fps=3.2 q=-0.0 size=    7084kB time=00:00:05.78 bitrate=10038.3kbits/s speed=0.063x    frame=  292 fps=3.2 q=-0.0 size=    7084kB time=00:00:05.82 bitrate=9969.3kbits/s speed=0.063x    frame=  294 fps=3.2 q=-0.0 size=    7084kB time=00:00:05.86 bitrate=9901.3kbits/s speed=0.063x    frame=  296 fps=3.2 q=-0.0 size=    7084kB time=00:00:05.90 bitrate=9834.1kbits/s speed=0.063x    frame=  298 fps=3.2 q=-0.0 size=    7084kB time=00:00:05.94 bitrate=9767.9kbits/s speed=0.0629x    frame=  300 fps=3.2 q=-0.0 size=    7084kB time=00:00:05.98 bitrate=9702.6kbits/s speed=0.0629x    frame=  302 fps=3.2 q=-0.0 size=    7355kB time=00:00:06.02 bitrate=10007.5kbits/s speed=0.063x    frame=  304 fps=3.2 q=-0.0 size=    7355kB time=00:00:06.06 bitrate=9941.5kbits/s speed=0.063x    frame=  306 fps=3.2 q=-0.0 size=    7355kB time=00:00:06.10 bitrate=9876.3kbits/s speed=0.063x    frame=  308 fps=3.2 q=-0.0 size=    7355kB time=00:00:06.14 bitrate=9812.0kbits/s speed=0.063x    frame=  310 fps=3.2 q=-0.0 size=    7355kB time=00:00:06.18 bitrate=9748.5kbits/s speed=0.063x    frame=  312 fps=3.2 q=-0.0 size=    7355kB time=00:00:06.22 bitrate=9685.8kbits/s speed=0.0629x    frame=  314 fps=3.2 q=-0.0 size=    7643kB time=00:00:06.26 bitrate=10000.6kbits/s speed=0.063x    frame=  316 fps=3.2 q=-0.0 size=    7643kB time=00:00:06.30 bitrate=9937.1kbits/s speed=0.063x    frame=  318 fps=3.2 q=-0.0 size=    7643kB time=00:00:06.34 bitrate=9874.5kbits/s speed=0.063x    frame=  320 fps=3.2 q=-0.0 size=    7643kB time=00:00:06.38 bitrate=9812.6kbits/s speed=0.063x    frame=  322 fps=3.2 q=-0.0 size=    7643kB time=00:00:06.42 bitrate=9751.4kbits/s speed=0.063x    frame=  324 fps=3.2 q=-0.0 size=    7643kB time=00:00:06.46 bitrate=9691.1kbits/s speed=0.0629x    frame=  326 fps=3.2 q=-0.0 size=    7936kB time=00:00:06.50 bitrate=9999.7kbits/s speed=0.0629x    frame=  328 fps=3.2 q=-0.0 size=    7936kB time=00:00:06.54 bitrate=9938.6kbits/s speed=0.0629x    frame=  330 fps=3.2 q=-0.0 size=    7936kB time=00:00:06.58 bitrate=9878.2kbits/s speed=0.0629x    frame=  332 fps=3.2 q=-0.0 size=    7936kB time=00:00:06.62 bitrate=9818.5kbits/s speed=0.0629x    frame=  334 fps=3.2 q=-0.0 size=    7936kB time=00:00:06.66 bitrate=9759.5kbits/s speed=0.0629x    frame=  336 fps=3.2 q=-0.0 size=    7936kB time=00:00:06.70 bitrate=9701.3kbits/s speed=0.0629x    frame=  338 fps=3.2 q=-0.0 size=    8226kB time=00:00:06.74 bitrate=9996.7kbits/s speed=0.063x    frame=  340 fps=3.2 q=-0.0 size=    8226kB time=00:00:06.78 bitrate=9937.7kbits/s speed=0.063x    frame=  342 fps=3.2 q=-0.0 size=    8226kB time=00:00:06.82 bitrate=9879.4kbits/s speed=0.063x    frame=  344 fps=3.2 q=-0.0 size=    8226kB time=00:00:06.86 bitrate=9821.8kbits/s speed=0.0629x    frame=  346 fps=3.2 q=-0.0 size=    8226kB time=00:00:06.90 bitrate=9764.9kbits/s speed=0.0629x    frame=  348 fps=3.2 q=-0.0 size=    8226kB time=00:00:06.94 bitrate=9708.6kbits/s speed=0.0629x    frame=  350 fps=3.2 q=-0.0 size=    8521kB time=00:00:06.98 bitrate=9999.3kbits/s speed=0.063x    frame=  352 fps=3.2 q=-0.0 size=    8521kB time=00:00:07.02 bitrate=9942.3kbits/s speed=0.063x    frame=  353 fps=3.2 q=-0.0 size=    8521kB time=00:00:07.04 bitrate=9914.0kbits/s speed=0.0628x    frame=  355 fps=3.2 q=-0.0 size=    8521kB time=00:00:07.08 bitrate=9858.0kbits/s speed=0.0628x    frame=  357 fps=3.1 q=-0.0 size=    8521kB time=00:00:07.12 bitrate=9802.7kbits/s speed=0.0628x    frame=  359 fps=3.1 q=-0.0 size=    8521kB time=00:00:07.16 bitrate=9747.9kbits/s speed=0.0628x    frame=  361 fps=3.1 q=-0.0 size=    8815kB time=00:00:07.20 bitrate=10028.6kbits/s speed=0.0628x    frame=  364 fps=3.2 q=-0.0 size=    8815kB time=00:00:07.26 bitrate=9945.7kbits/s speed=0.0629x    frame=  366 fps=3.2 q=-0.0 size=    8815kB time=00:00:07.30 bitrate=9891.2kbits/s speed=0.0629x    frame=  368 fps=3.2 q=-0.0 size=    8815kB time=00:00:07.34 bitrate=9837.3kbits/s speed=0.0628x    frame=  370 fps=3.1 q=-0.0 size=    8815kB time=00:00:07.38 bitrate=9784.0kbits/s speed=0.0628x    frame=  372 fps=3.1 q=-0.0 size=    8815kB time=00:00:07.42 bitrate=9731.3kbits/s speed=0.0628x    frame=  374 fps=3.2 q=-0.0 size=    9103kB time=00:00:07.46 bitrate=9995.4kbits/s speed=0.0629x    frame=  376 fps=3.2 q=-0.0 size=    9103kB time=00:00:07.50 bitrate=9942.1kbits/s speed=0.0629x    frame=  378 fps=3.2 q=-0.0 size=    9103kB time=00:00:07.54 bitrate=9889.4kbits/s speed=0.0629x    frame=  380 fps=3.2 q=-0.0 size=    9103kB time=00:00:07.58 bitrate=9837.2kbits/s speed=0.0629x    frame=  382 fps=3.2 q=-0.0 size=    9103kB time=00:00:07.62 bitrate=9785.6kbits/s speed=0.0629x    frame=  384 fps=3.2 q=-0.0 size=    9103kB time=00:00:07.66 bitrate=9734.5kbits/s speed=0.0629x    frame=  386 fps=3.2 q=-0.0 size=    9389kB time=00:00:07.70 bitrate=9988.0kbits/s speed=0.0629x    frame=  388 fps=3.2 q=-0.0 size=    9389kB time=00:00:07.74 bitrate=9936.3kbits/s speed=0.0629x    frame=  390 fps=3.2 q=-0.0 size=    9389kB time=00:00:07.78 bitrate=9885.3kbits/s speed=0.0629x    frame=  392 fps=3.2 q=-0.0 size=    9389kB time=00:00:07.82 bitrate=9834.7kbits/s speed=0.0629x    frame=  394 fps=3.2 q=-0.0 size=    9389kB time=00:00:07.86 bitrate=9784.7kbits/s speed=0.0629x    frame=  396 fps=3.2 q=-0.0 size=    9389kB time=00:00:07.90 bitrate=9735.1kbits/s speed=0.0629x    frame=  398 fps=3.2 q=-0.0 size=    9699kB time=00:00:07.94 bitrate=10005.8kbits/s speed=0.0629x    frame=  400 fps=3.2 q=-0.0 size=    9699kB time=00:00:07.98 bitrate=9955.6kbits/s speed=0.0629x    frame=  402 fps=3.2 q=-0.0 size=    9699kB time=00:00:08.02 bitrate=9906.0kbits/s speed=0.0629x    frame=  404 fps=3.2 q=-0.0 size=    9699kB time=00:00:08.06 bitrate=9856.8kbits/s speed=0.0629x    frame=  406 fps=3.2 q=-0.0 size=    9699kB time=00:00:08.10 bitrate=9808.2kbits/s speed=0.0629x    frame=  408 fps=3.2 q=-0.0 size=    9699kB time=00:00:08.14 bitrate=9760.0kbits/s speed=0.0629x    frame=  410 fps=3.2 q=-0.0 size=    9984kB time=00:00:08.18 bitrate=9997.0kbits/s speed=0.063x    frame=  412 fps=3.2 q=-0.0 size=    9984kB time=00:00:08.22 bitrate=9948.3kbits/s speed=0.063x    frame=  414 fps=3.2 q=-0.0 size=    9984kB time=00:00:08.26 bitrate=9900.2kbits/s speed=0.063x    frame=  416 fps=3.2 q=-0.0 size=    9984kB time=00:00:08.30 bitrate=9852.5kbits/s speed=0.0629x    frame=  418 fps=3.2 q=-0.0 size=    9984kB time=00:00:08.34 bitrate=9805.2kbits/s speed=0.0629x    frame=  420 fps=3.2 q=-0.0 size=    9984kB time=00:00:08.38 bitrate=9758.4kbits/s speed=0.0629x    frame=  422 fps=3.2 q=-0.0 size=   10275kB time=00:00:08.42 bitrate=9995.1kbits/s speed=0.063x    frame=  424 fps=3.2 q=-0.0 size=   10275kB time=00:00:08.46 bitrate=9947.8kbits/s speed=0.063x    frame=  426 fps=3.2 q=-0.0 size=   10275kB time=00:00:08.50 bitrate=9901.0kbits/s speed=0.063x    frame=  428 fps=3.2 q=-0.0 size=   10275kB time=00:00:08.54 bitrate=9854.7kbits/s speed=0.063x    frame=  430 fps=3.2 q=-0.0 size=   10275kB time=00:00:08.58 bitrate=9808.7kbits/s speed=0.063x    frame=  432 fps=3.2 q=-0.0 size=   10275kB time=00:00:08.62 bitrate=9763.2kbits/s speed=0.063x    frame=  434 fps=3.2 q=-0.0 size=   10568kB time=00:00:08.66 bitrate=9995.5kbits/s speed=0.063x    frame=  436 fps=3.2 q=-0.0 size=   10568kB time=00:00:08.70 bitrate=9949.6kbits/s speed=0.063x    frame=  438 fps=3.2 q=-0.0 size=   10568kB time=00:00:08.74 bitrate=9904.0kbits/s speed=0.063x    frame=  440 fps=3.2 q=-0.0 size=   10568kB time=00:00:08.78 bitrate=9858.9kbits/s speed=0.063x    frame=  442 fps=3.2 q=-0.0 size=   10568kB time=00:00:08.82 bitrate=9814.2kbits/s speed=0.063x    frame=  444 fps=3.2 q=-0.0 size=   10568kB time=00:00:08.86 bitrate=9769.9kbits/s speed=0.063x    frame=  446 fps=3.2 q=-0.0 size=   10874kB time=00:00:08.90 bitrate=10008.1kbits/s speed=0.063x    frame=  448 fps=3.2 q=-0.0 size=   10874kB time=00:00:08.94 bitrate=9963.3kbits/s speed=0.063x    frame=  450 fps=3.2 q=-0.0 size=   10874kB time=00:00:08.98 bitrate=9918.9kbits/s speed=0.063x    frame=  452 fps=3.2 q=-0.0 size=   10874kB time=00:00:09.02 bitrate=9874.9kbits/s speed=0.063x    frame=  454 fps=3.2 q=-0.0 size=   10874kB time=00:00:09.06 bitrate=9831.3kbits/s speed=0.063x    frame=  456 fps=3.2 q=-0.0 size=   10874kB time=00:00:09.10 bitrate=9788.1kbits/s speed=0.063x    frame=  458 fps=3.2 q=-0.0 size=   11161kB time=00:00:09.14 bitrate=10002.0kbits/s speed=0.063x    frame=  460 fps=3.2 q=-0.0 size=   11161kB time=00:00:09.18 bitrate=9958.4kbits/s speed=0.063x    frame=  462 fps=3.2 q=-0.0 size=   11161kB time=00:00:09.22 bitrate=9915.2kbits/s speed=0.063x    frame=  464 fps=3.2 q=-0.0 size=   11161kB time=00:00:09.26 bitrate=9872.3kbits/s speed=0.063x    frame=  466 fps=3.2 q=-0.0 size=   11161kB time=00:00:09.30 bitrate=9829.9kbits/s speed=0.063x    frame=  468 fps=3.2 q=-0.0 size=   11161kB time=00:00:09.34 bitrate=9787.8kbits/s speed=0.063x    frame=  470 fps=3.2 q=-0.0 size=   11467kB time=00:00:09.38 bitrate=10013.6kbits/s speed=0.063x    frame=  472 fps=3.2 q=-0.0 size=   11467kB time=00:00:09.42 bitrate=9971.1kbits/s speed=0.063x    frame=  474 fps=3.2 q=-0.0 size=   11467kB time=00:00:09.46 bitrate=9928.9kbits/s speed=0.063x    frame=  476 fps=3.2 q=-0.0 size=   11467kB time=00:00:09.50 bitrate=9887.1kbits/s speed=0.063x    frame=  478 fps=3.2 q=-0.0 size=   11467kB time=00:00:09.54 bitrate=9845.7kbits/s speed=0.063x    frame=  480 fps=3.2 q=-0.0 size=   11467kB time=00:00:09.58 bitrate=9804.6kbits/s speed=0.063x    frame=  482 fps=3.2 q=-0.0 size=   11742kB time=00:00:09.62 bitrate=9998.3kbits/s speed=0.0631x    frame=  484 fps=3.2 q=-0.0 size=   11742kB time=00:00:09.66 bitrate=9956.9kbits/s speed=0.0631x    frame=  486 fps=3.2 q=-0.0 size=   11742kB time=00:00:09.70 bitrate=9915.8kbits/s speed=0.063x    frame=  488 fps=3.2 q=-0.0 size=   11742kB time=00:00:09.74 bitrate=9875.1kbits/s speed=0.063x    frame=  490 fps=3.2 q=-0.0 size=   11742kB time=00:00:09.78 bitrate=9834.7kbits/s speed=0.063x    frame=  492 fps=3.2 q=-0.0 size=   11742kB time=00:00:09.82 bitrate=9794.6kbits/s speed=0.063x    frame=  494 fps=3.2 q=-0.0 size=   12044kB time=00:00:09.86 bitrate=10005.7kbits/s speed=0.0631x    frame=  496 fps=3.2 q=-0.0 size=   12044kB time=00:00:09.90 bitrate=9965.3kbits/s speed=0.0631x    frame=  498 fps=3.2 q=-0.0 size=   12044kB time=00:00:09.94 bitrate=9925.2kbits/s speed=0.0631x    frame=  500 fps=3.2 q=-0.0 size=   12044kB time=00:00:09.98 bitrate=9885.4kbits/s speed=0.063x    frame=  500 fps=3.2 q=-0.0 Lsize=   12256kB time=00:00:09.98 bitrate=10059.2kbits/s speed=0.0629x    
video:12247kB audio:0kB subtitle:0kB other streams:0kB global headers:3kB muxing overhead: 0.076209%
bench: utime=144.776s
bench: maxrss=203168kB
